<svg xmlns="http://www.w3.org/2000/svg" width="430" height="430" fill="none" viewBox="0 0 430 430"><g stroke-linecap="round" stroke-linejoin="round" stroke-width="12"><path stroke="#fff" d="M198.9 370.91S26.26 332.79 68.52 150.13c0-.09 6.23-21.4 6.25-21.49m-45.1 25.56 45.1-25.56m25.59 45.09-25.56-45.1m316.78 11.53c3.37 9.76 26.91 81.76-15 149.79-34.35 55.77-90.88 73.47-105.28 77.46a171.4 171.4 0 0 1-24 4.82m44.44 26.7-44.43-26.7m26.67-44.45-26.7 44.43"/><path stroke="#b872ff" d="M98.82 93c6.57-7.66 56.66-64.13 135.89-61.87 64.56 1.87 107.74 41.5 119.43 53.18a169 169 0 0 1 16.46 19m-.26-51.79.26 51.84m-51.84.3 51.84-.27"/></g></svg>